<?xml version="1.0" encoding="iso-8859-1"?>
<!-- Generator: Adobe Illustrator 19.0.0, SVG Export Plug-In . SVG Version: 6.00 Build 0)  -->
<svg version="1.1" id="Layer_1" xmlns="http://www.w3.org/2000/svg" xmlns:xlink="http://www.w3.org/1999/xlink" x="0px" y="0px"
	 viewBox="0 0 512 512" style="enable-background:new 0 0 512 512;" xml:space="preserve">
<g>
	<g>
		<g>
			<path d="M181.333,448H10.667C4.779,448,0,452.779,0,458.667v42.667C0,507.221,4.779,512,10.667,512h170.667
				c5.888,0,10.667-4.779,10.667-10.667v-42.667C192,452.779,187.221,448,181.333,448z"/>
			<path d="M109.781,423.552c2.091,2.091,4.821,3.115,7.552,3.115c2.731,0,5.461-1.045,7.552-3.115l152.448-152.448v59.584
				c0,5.888,4.779,10.667,10.667,10.667s10.667-4.779,10.667-10.667v-85.333c0-1.387-0.277-2.773-0.811-4.075
				c-1.088-2.603-3.157-4.693-5.781-5.781c-1.301-0.533-2.688-0.811-4.075-0.811h-85.333c-5.888,0-10.667,4.779-10.667,10.667
				s4.779,10.667,10.667,10.667h59.584L109.803,408.469C105.621,412.629,105.621,419.371,109.781,423.552z"/>
			<path d="M458.667,0H53.333C23.936,0,0,23.936,0,53.333v277.333C0,360.064,23.936,384,53.333,384H96
				c5.888,0,10.667-4.779,10.667-10.667c0-5.888-4.779-10.667-10.667-10.667H53.333c-17.643,0-32-14.357-32-32v-224h469.333v224
				c0,17.643-14.357,32-32,32H224c-5.888,0-10.667,4.779-10.667,10.667c0,5.888,4.779,10.667,10.667,10.667h234.667
				C488.064,384,512,360.064,512,330.667V53.333C512,23.936,488.064,0,458.667,0z M53.333,64c-5.888,0-10.667-4.779-10.667-10.667
				s4.779-10.667,10.667-10.667S64,47.445,64,53.333S59.221,64,53.333,64z M96,64c-5.888,0-10.667-4.779-10.667-10.667
				S90.112,42.667,96,42.667s10.667,4.779,10.667,10.667S101.888,64,96,64z M138.667,64C132.779,64,128,59.221,128,53.333
				s4.779-10.667,10.667-10.667s10.667,4.779,10.667,10.667S144.555,64,138.667,64z"/>
		</g>
	</g>
</g>
<g>
</g>
<g>
</g>
<g>
</g>
<g>
</g>
<g>
</g>
<g>
</g>
<g>
</g>
<g>
</g>
<g>
</g>
<g>
</g>
<g>
</g>
<g>
</g>
<g>
</g>
<g>
</g>
<g>
</g>
</svg>
