<svg id="OBJECT" height="512" viewBox="0 0 512 512" width="512" xmlns="http://www.w3.org/2000/svg"><path d="m56.39 430.61a25 25 0 1 0 25 25 25 25 0 0 0 -25-25zm0 35a10 10 0 1 1 10-10 10 10 0 0 1 -10 10z"/><path d="m509.8 202.38-40.43-40.38a29.14 29.14 0 0 0 -29.87-7.1l-24.92 8.21 8.35-24.34a29.46 29.46 0 0 0 -7-30.2l-106.31-106.37a7.48 7.48 0 0 0 -11.22.7l-102.58 131.88-9.39-9.39a7.5 7.5 0 0 0 -10.61 0l-23.1 23.1a7.49 7.49 0 0 0 0 10.6l17.8 17.8-48.37 48.37a29.34 29.34 0 0 0 -8.15 25.51l12.83 77-105.68 84.23a56.14 56.14 0 0 0 35 100c1 0 2.09 0 3.14-.09a56.19 56.19 0 0 0 40.71-21.06l84.2-105.65 77 12.83a29.33 29.33 0 0 0 25.51-8.18l48.37-48.37 17.8 17.8a7.51 7.51 0 0 0 10.6 0l23.1-23.1a7.5 7.5 0 0 0 0-10.61l-9.39-9.39 131.91-102.58a7.48 7.48 0 0 0 .7-11.22zm-421.49 279.12a41.14 41.14 0 1 1 -57.81-57.81l103.86-82.77 36.72 36.72zm187.83-102.26a14.31 14.31 0 0 1 -12.44 4l-79-13.16-42.8-42.8-13.16-79a14.29 14.29 0 0 1 4-12.44l48.36-48.37 143.41 143.41zm82.07-35.87-189.58-189.58 12.49-12.49 189.58 189.58zm8.32-37.88-160-160 98.47-126.68 33.82 33.82-21.25 51.57a7.5 7.5 0 0 0 4.08 9.79 7.36 7.36 0 0 0 2.85.57 7.5 7.5 0 0 0 6.94-4.64l18.89-45.8 17.73 17.74-13.35 32.38a7.5 7.5 0 0 0 4.08 9.79 7.36 7.36 0 0 0 2.85.57 7.5 7.5 0 0 0 6.94-4.64l11-26.62 25.78 25.79a14.35 14.35 0 0 1 3.41 14.73l-13.25 38.62a7.51 7.51 0 0 0 9.44 9.56l39.27-12.95a14.18 14.18 0 0 1 14.56 3.47l34.4 34.44z"/><path d="m264.36 316.93a7.5 7.5 0 0 0 10.64-10.61l-69.32-69.32a7.5 7.5 0 1 0 -10.61 10.61z"/><path d="m213.38 290.92a7.5 7.5 0 0 0 -10.61 10.61l38.5 38.5a7.5 7.5 0 1 0 10.6-10.61z"/><path d="m172 260.13a7.49 7.49 0 0 0 0 10.6l7.7 7.7a7.5 7.5 0 1 0 10.61-10.6l-7.7-7.7a7.5 7.5 0 0 0 -10.61 0z"/></svg>